<?xml version="1.0" encoding="UTF-8" standalone="no"?>
<svg
   width="300"
   height="300"
   viewBox="0 0 300 300"
   version="1.1"
   preserveAspectRatio="xMidYMid"
   id="svg5"
   sodipodi:docname="Logo_C_sharp.svg"
   inkscape:version="1.4.2 (ebf0e940, 2025-05-08)"
   xmlns:inkscape="http://www.inkscape.org/namespaces/inkscape"
   xmlns:sodipodi="http://sodipodi.sourceforge.net/DTD/sodipodi-0.dtd"
   xmlns="http://www.w3.org/2000/svg"
   xmlns:svg="http://www.w3.org/2000/svg">
  <defs
     id="defs5" />
  <sodipodi:namedview
     id="namedview5"
     pagecolor="#ffffff"
     bordercolor="#000000"
     borderopacity="0.25"
     inkscape:showpageshadow="2"
     inkscape:pageopacity="0.0"
     inkscape:pagecheckerboard="0"
     inkscape:deskcolor="#d1d1d1"
     inkscape:zoom="1"
     inkscape:cx="133"
     inkscape:cy="144"
     inkscape:window-width="1728"
     inkscape:window-height="965"
     inkscape:window-x="0"
     inkscape:window-y="34"
     inkscape:window-maximized="1"
     inkscape:current-layer="svg5" />
  <g
     id="g5"
     transform="matrix(1.0408956,0,0,1.0408956,16.98291,0.50000478)">
    <path
       d="m 255.569,84.452376 c -0.002,-4.83 -1.035,-9.098 -3.124,-12.761 -2.052,-3.602 -5.125,-6.621 -9.247,-9.008 -34.025,-19.619 -68.083,-39.178 -102.097,-58.8169999 -9.17,-5.294 -18.061,-5.101 -27.163,0.2689999 -13.543,7.987 -81.348,46.834 -101.553,58.537 -8.321,4.817 -12.37,12.189 -12.372,21.771 C 0,123.89838 0.013,163.35238 0,202.80838 c 0,4.724 0.991,8.909 2.988,12.517 2.053,3.711 5.169,6.813 9.386,9.254 20.206,11.703 88.02,50.547 101.56,58.536 9.106,5.373 17.997,5.565 27.17,0.269 34.015,-19.64 68.075,-39.198 102.105,-58.817 4.217,-2.44 7.333,-5.544 9.386,-9.252 1.994,-3.608 2.987,-7.793 2.987,-12.518 0,0 0,-78.889 -0.013,-118.345004"
       fill="#a179dc"
       fill-rule="nonzero"
       id="path1" />
    <path
       d="m 128.182,143.24138 -125.194,72.084 c 2.053,3.711 5.169,6.813 9.386,9.254 20.206,11.703 88.02,50.547 101.56,58.536 9.106,5.373 17.997,5.565 27.17,0.269 34.015,-19.64 68.075,-39.198 102.105,-58.817 4.217,-2.44 7.333,-5.544 9.386,-9.252 l -124.413,-72.074"
       fill="#280068"
       fill-rule="nonzero"
       id="path2" />
    <path
       d="m 255.569,84.452376 c -0.002,-4.83 -1.035,-9.098 -3.124,-12.761 l -124.263,71.550004 124.413,72.074 c 1.994,-3.608 2.985,-7.793 2.987,-12.518 0,0 0,-78.889 -0.013,-118.345004"
       fill="#390091"
       fill-rule="nonzero"
       id="path3" />
    <path
       d="m 201.89233,116.29401 v 13.47368 h 13.47368 v -13.47368 h 6.73684 v 13.47368 h 13.47369 v 6.73684 h -13.47369 v 13.47369 h 13.47369 v 6.73684 h -13.47369 v 13.47368 h -6.73684 v -13.47368 h -13.47368 v 13.47368 h -6.73685 V 156.71506 H 181.6818 v -6.73684 h 13.47368 V 136.50453 H 181.6818 v -6.73684 h 13.47368 v -13.47368 z m 13.47368,20.21052 h -13.47368 v 13.47369 h 13.47368 z"
       fill="#ffffff"
       id="path4" />
    <path
       d="m 128.45675,48.625876 c 35.14377,0 65.82713,19.086298 82.26181,47.456067 l -0.16037,-0.273067 -41.34857,23.808284 C 161.06296,105.82355 146.12814,96.515072 128.99638,96.323372 l -0.53963,-0.003 c -26.12557,0 -47.306079,21.179388 -47.306079,47.304968 0,8.54361 2.277774,16.5522 6.238976,23.46947 8.154098,14.23525 23.482903,23.83661 41.067103,23.83661 17.69277,0 33.10889,-9.72336 41.22157,-24.11084 l -0.19713,0.34532 41.28649,23.91803 c -16.2544,28.12956 -46.51741,47.15695 -81.2527,47.53619 l -1.05823,0.006 c -35.25458,0 -66.025247,-19.20383 -82.41851,-47.72358 -8.002993,-13.92297 -12.582048,-30.06439 -12.582048,-47.27698 0,-52.466058 42.532268,-94.999446 95.000558,-94.999446 z"
       fill="#ffffff"
       fill-rule="nonzero"
       id="path5" />
  </g>
</svg>
